<svg width="432" height="184" viewBox="0 0 432 184" fill="none" xmlns="http://www.w3.org/2000/svg">
<rect width="432" height="184" fill="white"/>
<path d="M194.365 107.564H212.676V115.656H183.845V72.0205H194.365V107.564Z" fill="url(#paint0_linear)"/>
<path d="M243.723 107.504H229.308L226.79 115.656H215.552L231.555 72.0205H241.445L257.569 115.656H246.27L243.723 107.504ZM231.825 99.3824H241.205L236.5 84.248L231.825 99.3824Z" fill="url(#paint1_linear)"/>
<path d="M272.522 100.851V115.656H262.003V72.0205H279.415C282.752 72.0205 285.699 72.6399 288.256 73.8786C290.833 75.0973 292.821 76.8455 294.22 79.1232C295.638 81.3809 296.348 83.9483 296.348 86.8253C296.348 91.0809 294.819 94.4875 291.762 97.0448C288.725 99.5822 284.55 100.851 279.235 100.851H272.522ZM272.522 92.7293H279.415C281.453 92.7293 283.001 92.2198 284.06 91.2008C285.139 90.1819 285.679 88.7433 285.679 86.8853C285.679 84.8473 285.129 83.219 284.03 82.0003C282.931 80.7815 281.433 80.1621 279.535 80.1422H272.522V92.7293Z" fill="url(#paint2_linear)"/>
<path d="M340.162 94.7372C340.162 98.9928 339.372 102.759 337.794 106.036C336.216 109.312 333.968 111.84 331.051 113.618C328.154 115.376 324.847 116.255 321.131 116.255C317.415 116.255 314.118 115.406 311.241 113.708C308.364 111.99 306.116 109.542 304.498 106.365C302.9 103.189 302.061 99.5423 301.981 95.4265V92.969C301.981 88.6934 302.76 84.9273 304.318 81.6706C305.897 78.394 308.144 75.8666 311.061 74.0884C313.998 72.3102 317.335 71.4211 321.071 71.4211C324.767 71.4211 328.064 72.3002 330.961 74.0584C333.858 75.8166 336.106 78.324 337.704 81.5807C339.322 84.8174 340.142 88.5336 340.162 92.7293V94.7372ZM329.463 92.9091C329.463 88.5735 328.733 85.2869 327.275 83.0492C325.836 80.7915 323.768 79.6627 321.071 79.6627C315.797 79.6627 313.009 83.6186 312.71 91.5305L312.68 94.7372C312.68 99.0128 313.389 102.299 314.808 104.597C316.226 106.895 318.334 108.044 321.131 108.044C323.788 108.044 325.836 106.915 327.275 104.657C328.713 102.399 329.443 99.1527 329.463 94.917V92.9091Z" fill="url(#paint3_linear)"/>
<path d="M363.027 100.252H357.333V115.656H346.814V72.0205H363.986C369.161 72.0205 373.206 73.1693 376.123 75.467C379.04 77.7646 380.499 81.0113 380.499 85.207C380.499 88.2439 379.88 90.7613 378.641 92.7592C377.422 94.7572 375.504 96.3755 372.887 97.6142L381.997 115.206V115.656H370.729L363.027 100.252ZM357.333 92.1299H363.986C365.984 92.1299 367.482 91.6104 368.481 90.5715C369.5 89.5126 370.01 88.0441 370.01 86.166C370.01 84.2879 369.5 82.8194 368.481 81.7605C367.462 80.6816 365.964 80.1422 363.986 80.1422H357.333V92.1299Z" fill="url(#paint4_linear)"/>
<path d="M397.64 101.84H389.459L388.17 72.0205H398.929L397.64 101.84ZM387.87 111.13C387.87 109.652 388.4 108.443 389.459 107.504C390.537 106.545 391.876 106.066 393.474 106.066C395.073 106.066 396.401 106.545 397.46 107.504C398.539 108.443 399.079 109.652 399.079 111.13C399.079 112.609 398.539 113.828 397.46 114.787C396.401 115.726 395.073 116.195 393.474 116.195C391.876 116.195 390.537 115.726 389.459 114.787C388.4 113.828 387.87 112.609 387.87 111.13Z" fill="url(#paint5_linear)"/>
<path fill-rule="evenodd" clip-rule="evenodd" d="M156.459 64.5082H89.9673V105.426H156.459V64.5082ZM78.0328 52.5738V117.361H137.705L161.574 131L156.459 117.361H168.393V52.5738H78.0328Z" fill="url(#paint6_linear)"/>
<path fill-rule="evenodd" clip-rule="evenodd" d="M110.426 38.9344H43.9344V79.8525H110.426V64.5082H122.361V91.7869H62.6885L38.8197 105.426L43.9344 91.7869H32V27H122.361V52.5738H110.426V38.9344Z" fill="url(#paint7_linear)"/>
<path d="M33.7477 156.368H38.3139V157.853H32V147.147H33.7477V156.368Z" fill="black"/>
<path d="M45.7051 155.36H41.809L40.9939 157.853H39.1771L42.9764 147.147H44.5445L48.3508 157.853H46.5271L45.7051 155.36ZM42.2995 153.86H45.2146L43.757 149.419L42.2995 153.86Z" fill="black"/>
<path d="M52.0256 152.221L54.3397 147.147H56.2739L52.9029 153.912V157.853H51.1483V153.912L47.7703 147.147H49.7114L52.0256 152.221Z" fill="black"/>
<path d="M62.2421 155.36H58.346L57.5309 157.853H55.7141L59.5135 147.147H61.0816L64.8879 157.853H63.0642L62.2421 155.36ZM58.8365 153.86H61.7517L60.2941 149.419L58.8365 153.86Z" fill="black"/>
<path d="M74.2962 157.853H72.5485L68.0652 150.257V157.853H66.3175V147.147H68.0652L72.5623 154.772V147.147H74.2962V157.853Z" fill="black"/>
<path d="M82.3989 155.36H78.5029L77.6877 157.853H75.8709L79.6703 147.147H81.2384L85.0447 157.853H83.221L82.3989 155.36ZM78.9933 153.86H81.9085L80.4509 149.419L78.9933 153.86Z" fill="black"/>
<path d="M94.453 157.853H92.7053L88.2221 150.257V157.853H86.4743V147.147H88.2221L92.7191 154.772V147.147H94.453V157.853Z" fill="black"/>
<path d="M106.237 155.36H102.341L101.526 157.853H99.7094L103.509 147.147H105.077L108.883 157.853H107.059L106.237 155.36ZM102.832 153.86H105.747L104.289 149.419L102.832 153.86Z" fill="black"/>
<path d="M115.57 155.096C115.57 154.625 115.413 154.262 115.1 154.007C114.791 153.752 114.232 153.495 113.421 153.235C112.611 152.975 111.966 152.686 111.487 152.368C110.571 151.755 110.112 150.956 110.112 149.971C110.112 149.108 110.442 148.397 111.1 147.838C111.763 147.279 112.622 147 113.677 147C114.377 147 115.001 147.137 115.549 147.412C116.097 147.686 116.528 148.078 116.841 148.588C117.154 149.093 117.311 149.654 117.311 150.272H115.57C115.57 149.713 115.404 149.277 115.072 148.963C114.745 148.645 114.276 148.485 113.663 148.485C113.092 148.485 112.648 148.615 112.33 148.875C112.017 149.135 111.86 149.498 111.86 149.963C111.86 150.355 112.031 150.684 112.371 150.949C112.712 151.208 113.274 151.463 114.057 151.713C114.84 151.958 115.468 152.24 115.943 152.559C116.417 152.873 116.765 153.235 116.986 153.647C117.207 154.054 117.317 154.532 117.317 155.081C117.317 155.973 116.995 156.684 116.35 157.213C115.71 157.738 114.84 158 113.739 158C113.012 158 112.341 157.858 111.729 157.574C111.121 157.284 110.647 156.887 110.306 156.382C109.97 155.877 109.802 155.289 109.802 154.618H111.549C111.549 155.225 111.738 155.696 112.116 156.029C112.493 156.363 113.035 156.529 113.739 156.529C114.347 156.529 114.803 156.4 115.107 156.14C115.415 155.875 115.57 155.527 115.57 155.096Z" fill="black"/>
<path d="M120.882 153.875V157.853H119.134V147.147H122.982C124.105 147.147 124.997 147.458 125.655 148.081C126.318 148.703 126.65 149.527 126.65 150.551C126.65 151.6 126.325 152.417 125.676 153C125.031 153.583 124.126 153.875 122.961 153.875H120.882ZM120.882 152.382H122.982C123.603 152.382 124.078 152.228 124.405 151.919C124.732 151.605 124.895 151.154 124.895 150.566C124.895 149.988 124.729 149.527 124.398 149.184C124.066 148.836 123.61 148.657 123.03 148.647H120.882V152.382Z" fill="black"/>
<path d="M130.311 157.853H128.57V147.147H130.311V157.853Z" fill="black"/>
<path d="M136.438 153.728H134.49V157.853H132.742V147.147H136.279C137.439 147.147 138.335 147.424 138.966 147.978C139.597 148.532 139.912 149.333 139.912 150.382C139.912 151.098 139.749 151.699 139.422 152.184C139.1 152.664 138.648 153.034 138.068 153.294L140.327 157.757V157.853H138.455L136.438 153.728ZM134.49 152.235H136.286C136.875 152.235 137.336 152.078 137.667 151.765C137.999 151.446 138.165 151.012 138.165 150.463C138.165 149.89 138.011 149.446 137.702 149.132C137.398 148.819 136.942 148.657 136.334 148.647H134.49V152.235Z" fill="black"/>
<path d="M147.483 155.36H143.587L142.772 157.853H140.955L144.755 147.147H146.323L150.129 157.853H148.305L147.483 155.36ZM144.078 153.86H146.993L145.535 149.419L144.078 153.86Z" fill="black"/>
<path d="M156.816 155.096C156.816 154.625 156.659 154.262 156.346 154.007C156.037 153.752 155.478 153.495 154.667 153.235C153.857 152.975 153.212 152.686 152.733 152.368C151.817 151.755 151.358 150.956 151.358 149.971C151.358 149.108 151.688 148.397 152.346 147.838C153.009 147.279 153.868 147 154.923 147C155.623 147 156.247 147.137 156.795 147.412C157.343 147.686 157.774 148.078 158.087 148.588C158.4 149.093 158.556 149.654 158.556 150.272H156.816C156.816 149.713 156.65 149.277 156.318 148.963C155.991 148.645 155.522 148.485 154.909 148.485C154.338 148.485 153.894 148.615 153.576 148.875C153.263 149.135 153.106 149.498 153.106 149.963C153.106 150.355 153.277 150.684 153.617 150.949C153.958 151.208 154.52 151.463 155.303 151.713C156.086 151.958 156.714 152.24 157.189 152.559C157.663 152.873 158.011 153.235 158.232 153.647C158.453 154.054 158.563 154.532 158.563 155.081C158.563 155.973 158.241 156.684 157.596 157.213C156.956 157.738 156.086 158 154.985 158C154.257 158 153.587 157.858 152.975 157.574C152.367 157.284 151.893 156.887 151.552 156.382C151.216 155.877 151.048 155.289 151.048 154.618H152.795C152.795 155.225 152.984 155.696 153.362 156.029C153.739 156.363 154.28 156.529 154.985 156.529C155.593 156.529 156.049 156.4 156.353 156.14C156.661 155.875 156.816 155.527 156.816 155.096Z" fill="black"/>
<path d="M162.224 157.853H160.484V147.147H162.224V157.853Z" fill="black"/>
<path d="M168.462 157.853V147.147H171.432C172.321 147.147 173.108 147.358 173.795 147.779C174.485 148.201 175.02 148.799 175.397 149.574C175.775 150.348 175.964 151.235 175.964 152.235V152.772C175.964 153.787 175.773 154.679 175.39 155.449C175.013 156.218 174.472 156.811 173.767 157.228C173.067 157.645 172.263 157.853 171.356 157.853H168.462ZM170.209 148.647V156.368H171.349C172.266 156.368 172.968 156.064 173.456 155.456C173.949 154.843 174.2 153.966 174.209 152.824V152.228C174.209 151.066 173.972 150.179 173.498 149.566C173.023 148.953 172.335 148.647 171.432 148.647H170.209Z" fill="black"/>
<path d="M183.465 155.36H179.569L178.754 157.853H176.937L180.737 147.147H182.305L186.111 157.853H184.287L183.465 155.36ZM180.06 153.86H182.975L181.517 149.419L180.06 153.86Z" fill="black"/>
<path d="M195.519 157.853H193.772L189.289 150.257V157.853H187.541V147.147H189.289L193.786 154.772V147.147H195.519V157.853Z" fill="black"/>
<path d="M203.422 153.875V157.853H201.674V147.147H205.522C206.645 147.147 207.536 147.458 208.195 148.081C208.858 148.703 209.19 149.527 209.19 150.551C209.19 151.6 208.865 152.417 208.216 153C207.571 153.583 206.666 153.875 205.501 153.875H203.422ZM203.422 152.382H205.522C206.143 152.382 206.618 152.228 206.945 151.919C207.272 151.605 207.435 151.154 207.435 150.566C207.435 149.988 207.269 149.527 206.938 149.184C206.606 148.836 206.15 148.657 205.57 148.647H203.422V152.382Z" fill="black"/>
<path d="M216.885 153.074H212.754V156.368H217.583V157.853H211.006V147.147H217.534V148.647H212.754V151.603H216.885V153.074Z" fill="black"/>
<path d="M227.267 157.853H225.52L221.036 150.257V157.853H219.289V147.147H221.036L225.533 154.772V147.147H227.267V157.853Z" fill="black"/>
<path d="M237.325 156.463C236.961 156.968 236.457 157.35 235.812 157.61C235.167 157.87 234.435 158 233.615 158C232.773 158 232.027 157.797 231.377 157.39C230.728 156.983 230.226 156.402 229.871 155.647C229.521 154.887 229.339 154.002 229.326 152.993V152.154C229.326 150.537 229.689 149.275 230.417 148.368C231.145 147.456 232.16 147 233.463 147C234.582 147 235.471 147.294 236.13 147.882C236.788 148.471 237.184 149.319 237.318 150.426H235.605C235.411 149.137 234.709 148.493 233.498 148.493C232.715 148.493 232.119 148.794 231.709 149.397C231.304 149.995 231.094 150.875 231.08 152.037V152.86C231.08 154.017 231.308 154.917 231.764 155.559C232.225 156.196 232.862 156.515 233.678 156.515C234.571 156.515 235.206 156.299 235.584 155.868V153.772H233.512V152.36H237.325V156.463Z" fill="black"/>
<path d="M245.158 155.36H241.262L240.447 157.853H238.63L242.43 147.147H243.998L247.804 157.853H245.98L245.158 155.36ZM241.753 153.86H244.668L243.21 149.419L241.753 153.86Z" fill="black"/>
<path d="M249.234 157.853V147.147H252.204C253.093 147.147 253.88 147.358 254.567 147.779C255.257 148.201 255.792 148.799 256.169 149.574C256.547 150.348 256.736 151.235 256.736 152.235V152.772C256.736 153.787 256.545 154.679 256.162 155.449C255.785 156.218 255.244 156.811 254.539 157.228C253.839 157.645 253.035 157.853 252.128 157.853H249.234ZM250.981 148.647V156.368H252.121C253.038 156.368 253.74 156.064 254.228 155.456C254.721 154.843 254.972 153.966 254.981 152.824V152.228C254.981 151.066 254.744 150.179 254.27 149.566C253.795 148.953 253.107 148.647 252.204 148.647H250.981Z" fill="black"/>
<path d="M266.116 147.147V154.301C266.116 155.439 265.773 156.341 265.087 157.007C264.406 157.669 263.496 158 262.358 158C261.207 158 260.293 157.674 259.616 157.022C258.939 156.365 258.601 155.456 258.601 154.294V147.147H260.341V154.309C260.341 155.025 260.512 155.571 260.853 155.949C261.193 156.326 261.695 156.515 262.358 156.515C263.703 156.515 264.376 155.76 264.376 154.25V147.147H266.116Z" fill="black"/>
<path d="M273.749 155.36H269.853L269.038 157.853H267.221L271.021 147.147H272.589L276.395 157.853H274.571L273.749 155.36ZM270.344 153.86H273.259L271.801 149.419L270.344 153.86Z" fill="black"/>
<path d="M285.803 157.853H284.056L279.573 150.257V157.853H277.825V147.147H279.573L284.07 154.772V147.147H285.803V157.853Z" fill="black"/>
<path d="M299.985 152.779C299.985 153.828 299.815 154.75 299.474 155.544C299.133 156.333 298.645 156.941 298.009 157.368C297.378 157.789 296.651 158 295.826 158C295.011 158 294.284 157.789 293.643 157.368C293.008 156.941 292.515 156.336 292.165 155.551C291.82 154.767 291.645 153.863 291.64 152.838V152.235C291.64 151.191 291.813 150.27 292.158 149.471C292.508 148.672 292.999 148.061 293.63 147.64C294.265 147.213 294.993 147 295.813 147C296.632 147 297.358 147.211 297.989 147.632C298.624 148.049 299.115 148.652 299.46 149.441C299.805 150.225 299.98 151.14 299.985 152.184V152.779ZM298.237 152.221C298.237 151.034 298.025 150.125 297.602 149.493C297.183 148.86 296.586 148.544 295.813 148.544C295.057 148.544 294.465 148.86 294.037 149.493C293.613 150.12 293.397 151.01 293.388 152.162V152.779C293.388 153.956 293.602 154.865 294.03 155.507C294.463 156.15 295.062 156.471 295.826 156.471C296.6 156.471 297.194 156.157 297.609 155.529C298.028 154.902 298.237 153.985 298.237 152.779V152.221Z" fill="black"/>
<path d="M309.987 157.853H308.24L303.756 150.257V157.853H302.009V147.147H303.756L308.253 154.772V147.147H309.987V157.853Z" fill="black"/>
<path d="M314.083 156.368H318.65V157.853H312.336V147.147H314.083V156.368Z" fill="black"/>
<path d="M322.117 157.853H320.376V147.147H322.117V157.853Z" fill="black"/>
<path d="M332.527 157.853H330.779L326.296 150.257V157.853H324.548V147.147H326.296L330.793 154.772V147.147H332.527V157.853Z" fill="black"/>
<path d="M340.754 153.074H336.623V156.368H341.452V157.853H334.876V147.147H341.404V148.647H336.623V151.603H340.754V153.074Z" fill="black"/>
<path d="M350.66 153.728H348.712V157.853H346.964V147.147H350.501C351.661 147.147 352.557 147.424 353.188 147.978C353.819 148.532 354.134 149.333 354.134 150.382C354.134 151.098 353.971 151.699 353.644 152.184C353.321 152.664 352.87 153.034 352.29 153.294L354.549 157.757V157.853H352.677L350.66 153.728ZM348.712 152.235H350.508C351.097 152.235 351.558 152.078 351.889 151.765C352.221 151.446 352.387 151.012 352.387 150.463C352.387 149.89 352.232 149.446 351.924 149.132C351.62 148.819 351.164 148.657 350.556 148.647H348.712V152.235Z" fill="black"/>
<path d="M361.705 155.36H357.809L356.994 157.853H355.177L358.977 147.147H360.545L364.351 157.853H362.527L361.705 155.36ZM358.3 153.86H361.215L359.757 149.419L358.3 153.86Z" fill="black"/>
<path d="M368.668 153.228L367.528 154.515V157.853H365.781V147.147H367.528V152.169L368.495 150.897L371.438 147.147H373.552L369.815 151.89L373.766 157.853H371.694L368.668 153.228Z" fill="black"/>
<path d="M378.27 152.221L380.584 147.147H382.518L379.147 153.912V157.853H377.393V153.912L374.015 147.147H375.956L378.27 152.221Z" fill="black"/>
<path d="M388.486 155.36H384.59L383.775 157.853H381.958L385.758 147.147H387.326L391.132 157.853H389.308L388.486 155.36ZM385.081 153.86H387.996L386.538 149.419L385.081 153.86Z" fill="black"/>
<path d="M399 148.647H395.864V157.853H394.13V148.647H391.021V147.147H399V148.647Z" fill="black"/>
<defs>
<linearGradient id="paint0_linear" x1="291.462" y1="71.4211" x2="291.462" y2="116.255" gradientUnits="userSpaceOnUse">
<stop stop-color="#FF2B32"/>
<stop offset="1" stop-color="#ED1B23"/>
</linearGradient>
<linearGradient id="paint1_linear" x1="291.462" y1="71.4211" x2="291.462" y2="116.255" gradientUnits="userSpaceOnUse">
<stop stop-color="#FF2B32"/>
<stop offset="1" stop-color="#ED1B23"/>
</linearGradient>
<linearGradient id="paint2_linear" x1="291.462" y1="71.4211" x2="291.462" y2="116.255" gradientUnits="userSpaceOnUse">
<stop stop-color="#FF2B32"/>
<stop offset="1" stop-color="#ED1B23"/>
</linearGradient>
<linearGradient id="paint3_linear" x1="291.462" y1="71.4211" x2="291.462" y2="116.255" gradientUnits="userSpaceOnUse">
<stop stop-color="#FF2B32"/>
<stop offset="1" stop-color="#ED1B23"/>
</linearGradient>
<linearGradient id="paint4_linear" x1="291.462" y1="71.4211" x2="291.462" y2="116.255" gradientUnits="userSpaceOnUse">
<stop stop-color="#FF2B32"/>
<stop offset="1" stop-color="#ED1B23"/>
</linearGradient>
<linearGradient id="paint5_linear" x1="291.462" y1="71.4211" x2="291.462" y2="116.255" gradientUnits="userSpaceOnUse">
<stop stop-color="#FF2B32"/>
<stop offset="1" stop-color="#ED1B23"/>
</linearGradient>
<linearGradient id="paint6_linear" x1="78" y1="53" x2="168" y2="116.5" gradientUnits="userSpaceOnUse">
<stop stop-color="#FF2931"/>
<stop offset="1" stop-color="#EF1C24"/>
</linearGradient>
<linearGradient id="paint7_linear" x1="32" y1="27" x2="122" y2="94" gradientUnits="userSpaceOnUse">
<stop stop-color="#DFDFDF"/>
<stop offset="1" stop-color="#828282"/>
</linearGradient>
</defs>
</svg>
